<?xml version="1.0" encoding="utf-8"?>
<!-- Generator: Adobe Illustrator 16.0.0, SVG Export Plug-In . SVG Version: 6.00 Build 0)  -->
<!DOCTYPE svg PUBLIC "-//W3C//DTD SVG 1.1//EN" "http://www.w3.org/Graphics/SVG/1.1/DTD/svg11.dtd">
<svg version="1.1" id="Layer_1" xmlns="http://www.w3.org/2000/svg" xmlns:xlink="http://www.w3.org/1999/xlink" x="0px" y="0px"
	 width="300px" height="32px" viewBox="0 0 300 32" enable-background="new 0 0 300 32" xml:space="preserve">
<path fill="#FFFFFF" d="M43.396,5.725V0.017H8.147C2.733,0.017,0,2.807,0,7.34v17.379c0,4.534,2.728,7.324,8.147,7.324h35.248v-5.72
	H6.125V5.725H43.396L43.396,5.725z M66.925,13.095V0.017h-6.009v32.026h6.009V18.727h32.083v13.316h6.009V0.017h-6.009v13.078
	H66.925z M163.358,0.017v26.324h-31.627V0.017h-6.01v24.702c0,4.534,2.728,7.324,8.148,7.324h27.348c5.415,0,8.149-2.79,8.149-7.324
	V0.017H163.358L163.358,0.017z M227.024,32.043c5.917,0,8.667-2.471,8.667-6.73v-3.755c0-1.163-0.409-1.745-1.271-2.471
	l-3.826-3.295l3.826-3.295c0.868-0.732,1.271-1.279,1.271-2.47V6.729c0-4.26-2.732-6.729-8.667-6.729h-36.983v32.043H227.024
	L227.024,32.043z M196.074,5.45h33.451v7.784h-33.451V5.45z M229.525,26.602H196.08v-7.986h33.452v8.01L229.525,26.602z
	 M291.645,32.048c5.917,0,8.667-2.47,8.667-6.729v-3.756c0-1.162-0.409-1.743-1.276-2.47l-3.826-3.295l3.826-3.295
	c0.867-0.732,1.276-1.279,1.276-2.47V6.736c0-4.26-2.733-6.731-8.667-6.731h-36.982v32.038h36.982V32.048L291.645,32.048z
	 M260.7,5.45h33.452v7.784H260.7V5.45L260.7,5.45z M294.152,26.602H260.7v-7.986h33.452v8.01V26.602z"/>
</svg>
